<svg width="24" height="24" viewBox="0 0 24 24" fill="none" xmlns="http://www.w3.org/2000/svg">
<g id="btn_info">
<path id="Shape" fill-rule="evenodd" clip-rule="evenodd" d="M20.4859 3.51454C15.7995 -1.17125 8.20137 -1.17177 3.51454 3.51454C-1.17177 8.20085 -1.17125 15.799 3.51454 20.4859C8.20085 25.1711 15.799 25.1716 20.4859 20.4859C25.1716 15.799 25.1711 8.20137 20.4859 3.51454ZM13.5631 17.2178C13.5631 18.0823 12.8624 18.783 11.9979 18.783C11.1333 18.783 10.4326 18.0823 10.4326 17.2178V10.9568C10.4326 10.0923 11.1333 9.3916 11.9979 9.3916C12.8624 9.3916 13.5631 10.0923 13.5631 10.9568V17.2178ZM10.4887 6.85445C10.4699 7.6428 11.071 8.28142 11.9726 8.28142C12.9117 8.28142 13.5122 7.6428 13.5127 6.85445C13.4934 6.02852 12.9112 5.40869 11.9908 5.40869C11.071 5.40869 10.4699 6.028 10.4887 6.85445Z" fill="#FCBE4B"/>
</g>
</svg>
