<?xml version="1.0" encoding="UTF-8"?>
<svg width="48px" height="48px" viewBox="0 0 48 48" version="1.1" xmlns="http://www.w3.org/2000/svg" xmlns:xlink="http://www.w3.org/1999/xlink">
    <title>B17C8A39-9030-4A12-9C8A-B4DDA429A1E9@1.5x</title>
    <defs>
        <path d="M15.6450287,12.6720244 C15.6432025,12.6688447 15.6413431,12.6657311 15.6394506,12.6625514 L9.30575525,2.11455844 C9.30512439,2.1134654 9.30442713,2.11240547 9.30379627,2.11131243 C9.00151502,1.61414213 8.5231908,1.26413556 7.95704431,1.12584868 C7.39083142,0.98746244 6.80459705,1.07745656 6.30618494,1.37903788 C6.0072572,1.55995354 5.75341931,1.81317586 5.57213025,2.11134555 C5.57149939,2.11240547 5.57083533,2.1134654 5.57020447,2.11455844 L-0.763524045,12.6624851 C-0.765416623,12.6656649 -0.767275998,12.6688115 -0.76910217,12.6719913 C-1.0605924,13.1755543 -1.1380553,13.7622219 -0.987213498,14.3238819 C-0.836371702,14.885575 -0.475354123,15.3550217 0.0294661891,15.645805 C0.353528689,15.8324509 0.722581423,15.9332761 1.09671424,15.9374827 C1.09923767,15.9374827 1.10176111,15.9374827 1.10428455,15.9374827 L13.7717084,15.9374827 C13.7742318,15.9374827 13.7767553,15.9374827 13.7792455,15.9374827 C14.9824271,15.9242668 15.9505638,14.9370144 15.9374827,13.7366843 C15.9331986,13.3634257 15.8321615,12.9952348 15.6450287,12.6720244 Z" id="path-1"></path>
    </defs>
    <g id="Design" stroke="none" stroke-width="1" fill="none" fill-rule="evenodd">
        <g id="08.2_VirtualLearn_Home_categories_design_course" transform="translate(-46.000000, -415.000000)">
            <g id="Preview" transform="translate(24.000000, 363.000000)">
                <g id="video" transform="translate(0.000000, 36.000000)">
                    <g id="icn_play_orange" transform="translate(22.000000, 16.000000)">
                        <circle id="button-background-circle" stroke="#FCBE4B" fill-opacity="0.1" fill="#FCBE4B" cx="24" cy="24" r="23.5"></circle>
                        <g id="icn_previewplay" transform="translate(18.062483, 15.000017)">
                            <mask id="mask-2" fill="white">
                                <use xlink:href="#path-1"></use>
                            </mask>
                            <use id="Shape" fill="#FCBE4B" fill-rule="nonzero" transform="translate(7.437500, 8.499983) rotate(90.000000) translate(-7.437500, -8.499983) " xlink:href="#path-1"></use>
                        </g>
                    </g>
                </g>
            </g>
        </g>
    </g>
</svg>